<?xml version="1.0" encoding="utf-8"?>
<!-- Generator: Adobe Illustrator 22.1.0, SVG Export Plug-In . SVG Version: 6.00 Build 0)  -->
<svg version="1.1" xmlns="http://www.w3.org/2000/svg" xmlns:xlink="http://www.w3.org/1999/xlink" x="0px" y="0px"
	 viewBox="0 0 406.3 190.8" style="enable-background:new 0 0 406.3 190.8;" xml:space="preserve">
<style type="text/css">
	.st0{font-family:'Pixelony';}
	.st1{font-size:214.9022px;}
	.st2{font-size:51.5214px;}
	.st3{enable-background:new    ;}
	.st4{fill-rule:evenodd;clip-rule:evenodd;}
	.st5{fill-rule:evenodd;clip-rule:evenodd;fill:#FFFFFF;}
	.st6{fill:#FFFFFF;}
</style>
<g id="T">
	<text transform="matrix(0.9994 0 0 1 13.68 176.7751)" class="st0 st1">T</text>
</g>
<g id="G">
	<text transform="matrix(0.9994 0 0 1 135.3601 176.7751)" class="st0 st1">G</text>
</g>
<g id="AMES">
	<text transform="matrix(1.0001 0 0 1 262.8001 176.8552)" class="st0 st2">AMES</text>
</g>
<g id="Rect치ngulo_1_1_" class="st3">
	<g id="Rect치ngulo_1">
		<g>
			<rect x="102.7" y="162.7" class="st4" width="14.2" height="14.2"/>
		</g>
	</g>
</g>
<g id="Forma_1_1_" class="st3">
	<g id="Forma_1">
		<g>
			<rect x="71.8" y="32.2" class="st5" width="0.2" height="137.8"/>
		</g>
		<g>
			<polygon class="st6" points="72,32.2 71.8,32.2 71.8,169.9 72,169.9 72,32.2 			"/>
		</g>
	</g>
</g>
<g id="Forma_1_copia_2_1_" class="st3">
	<g id="Forma_1_copia_2">
		<g>
			<rect x="149.3" y="43" class="st5" width="0.2" height="108"/>
		</g>
		<g>
			<polygon class="st6" points="149.5,43 149.3,43 149.3,151 149.5,151 149.5,43 			"/>
		</g>
	</g>
</g>
<g id="Forma_1_copia_3_1_" class="st3">
	<g id="Forma_1_copia_3">
		<g>
			<rect x="162.7" y="162.7" class="st5" width="61.4" height="0.2"/>
		</g>
		<g>
			<polygon class="st6" points="224.2,162.7 162.7,162.7 162.7,163 224.2,163 224.2,162.7 			"/>
		</g>
	</g>
</g>
<g id="Forma_1_copia_4_1_" class="st3">
	<g id="Forma_1_copia_4">
		<g>
			<rect x="162.7" y="31.9" class="st5" width="61.4" height="0.2"/>
		</g>
		<g>
			<polygon class="st6" points="224.2,31.9 162.7,31.9 162.7,32.2 224.2,32.2 224.2,31.9 			"/>
		</g>
	</g>
</g>
<g id="Forma_1_copia_1_" class="st3">
	<g id="Forma_1_copia">
		<g>
			<rect x="32.6" y="31.2" class="st5" width="79.4" height="0.2"/>
		</g>
		<g>
			<polygon class="st6" points="112.1,31.2 32.6,31.2 32.6,31.4 112.1,31.4 112.1,31.2 			"/>
		</g>
	</g>
</g>
<g id="Rect치ngulo_2_1_" class="st3">
	<g id="Rect치ngulo_2">
		<g>
			<rect x="109" y="169" class="st5" width="2.4" height="2.4"/>
		</g>
		<g>
			<polygon class="st6" points="111.4,169 109,169 109,171.4 111.4,171.4 111.4,169 			"/>
		</g>
	</g>
</g>
</svg>
